Coordinates
version=1
nRows=8
nColumns=40
inDegrees=yes

Units are S.I. units (second, meters, Newtons, ...)
Angles are in degrees.

endheader
time	pelvis_tilt	pelvis_list	pelvis_rotation	pelvis_tx	pelvis_ty	pelvis_tz	hip_flexion_r	hip_adduction_r	hip_rotation_r	knee_angle_r	knee_angle_r_beta	ankle_angle_r	subtalar_angle_r	mtp_angle_r	hip_flexion_l	hip_adduction_l	hip_rotation_l	knee_angle_l	knee_angle_l_beta	ankle_angle_l	subtalar_angle_l	mtp_angle_l	lumbar_extension	lumbar_bending	lumbar_rotation	arm_flex_r	arm_add_r	arm_rot_r	elbow_flex_r	pro_sup_r	wrist_flex_r	wrist_dev_r	arm_flex_l	arm_add_l	arm_rot_l	elbow_flex_l	pro_sup_l	wrist_flex_l	wrist_dev_l
     56.11000000	     -2.89622480	     -4.15050887	      6.38384360	      1.18042513	      0.92435954	      0.43562231	      5.07222038	     -2.72020938	    -13.94595317	     30.60440348	     30.60440348	     15.61522791	     -6.26380068	     -7.54199158	     24.47105325	     -5.16020227	     -0.78328518	     25.67122390	     25.67122390	      6.91793031	    -13.67923660	      1.09401948	     -8.49323701	      2.85513744	      4.40246221	     30.21228658	    -16.16443647	     -6.13693377	     92.72616372	     44.75516079	      0.00000000	      0.00000000	      0.24804294	     -6.88497937	    -11.85209625	     25.53715148	     45.74809092	      0.00000000	      0.00000000
     56.12342857	     -2.89719103	     -4.01427241	      5.98658283	      1.18014829	      0.92487283	      0.43302857	      6.92105315	     -3.60237329	    -13.20701333	     34.45511026	     34.45511026	     14.23070365	     -7.42961418	     -9.03769710	     23.95227350	     -5.00400372	     -1.20920448	     25.61398190	     25.61398190	      7.37929565	    -13.71565046	      0.96721465	     -8.50429118	      2.68129149	      4.38843457	     29.04578247	    -15.94902852	     -5.76389690	     90.47970454	     44.81472864	      0.00000000	      0.00000000	      1.19685450	     -7.10802118	    -11.70466946	     25.99369743	     45.74370320	      0.00000000	      0.00000000
     56.13685714	     -2.78921086	     -4.03296051	      5.63058939	      1.17976237	      0.92556528	      0.43055742	      8.47902513	     -4.19691204	    -12.49135233	     37.56273855	     37.56273855	     10.09267178	    -10.33663646	    -16.72179643	     23.36985263	     -5.00949040	     -1.52333363	     25.57505548	     25.57505548	      7.71771676	    -13.72419708	      0.82534691	     -8.57912757	      2.68570365	      3.23963901	     29.18731566	    -14.98581991	     -3.96014922	     85.48639351	     44.95427734	      0.00000000	      0.00000000	      1.11978726	     -7.62201661	    -10.70783682	     27.52087044	     45.62647876	      0.00000000	      0.00000000
     56.15028571	     -2.69127053	     -3.95523855	      5.22504482	      1.17928088	      0.92605492	      0.42814207	     10.47663671	     -4.98041028	    -11.71326115	     41.59334414	     41.59334414	      8.02885908	    -11.57274927	    -17.81002298	     22.79127856	     -4.94319372	     -1.98256461	     25.55678360	     25.55678360	      8.06309015	    -13.70743612	      0.51020182	     -8.73272337	      2.59146000	      3.38924190	     27.86375574	    -14.87182943	     -3.80041688	     83.14121837	     45.02864197	      0.00000000	      0.00000000	      2.19752052	     -7.86974174	    -10.44735191	     28.16820578	     45.62125435	      0.00000000	      0.00000000
     56.16371429	     -2.58722436	     -3.79769780	      4.85911644	      1.17874070	      0.92645065	      0.42564880	     12.56161413	     -5.88125984	    -10.98314520	     45.68671021	     45.68671021	      5.90413749	    -12.33330432	    -18.29461456	     22.16653218	     -4.76807875	     -2.42722246	     25.46520489	     25.46520489	      8.43437930	    -13.58496699	      0.25662353	     -8.93290342	      2.46624070	      3.35278920	     26.39265267	    -14.65344193	     -3.46228337	     81.50196740	     45.06710809	      0.00000000	      0.00000000	      3.26552992	     -8.13871273	    -10.34713984	     28.75299626	     45.62919781	      0.00000000	      0.00000000
     56.17714286	     -2.40023365	     -3.66196350	      4.50180898	      1.17814703	      0.92689095	      0.42330077	     14.57140546	     -6.69737649	    -10.26856447	     49.60219413	     49.60219413	      3.49131574	    -13.07990644	    -18.42053372	     21.53713633	     -4.63754704	     -2.90649656	     25.50596111	     25.50596111	      8.78938918	    -13.53538531	      0.00080792	     -9.23335044	      2.33935544	      3.31633136	     24.87928577	    -14.45676692	     -3.13372417	     79.72107067	     45.10931675	      0.00000000	      0.00000000	      4.44250554	     -8.41521987	    -10.25785811	     29.38050522	     45.63858259	      0.00000000	      0.00000000
     56.19057143	     -2.30333301	     -3.70780262	      4.15876510	      1.17750276	      0.92719508	      0.42109630	     16.66050471	     -7.16432652	     -9.41904685	     53.21085863	     53.21085863	      0.75970618	    -14.17931657	    -18.57145706	     21.00381258	     -4.71290854	     -3.38583359	     25.47220085	     25.47220085	      9.04045630	    -13.30741483	     -0.65599567	     -9.22029590	      2.41886348	      2.63802563	     24.70817459	    -13.69442773	     -2.43859642	     74.18764471	     45.27271665	      0.00000000	      0.00000000	      4.92220656	     -8.97300739	     -9.40614894	     30.40344584	     45.55389423	      0.00000000	      0.00000000
     56.20400000	     -2.16020887	     -3.60936008	      3.84581051	      1.17685979	      0.92748272	      0.41884035	     18.68498595	     -7.80301938	     -8.65437538	     56.66941426	     56.66941426	     -1.63494857	    -14.64883139	    -17.93978492	     20.42754989	     -4.59097052	     -3.77431414	     25.47988772	     25.47988772	      9.40081639	    -13.23684644	     -0.86445516	     -9.44786262	      2.37576206	      2.66929299	     22.96287572	    -13.72439987	     -2.08065409	     72.56497097	     45.30703418	      0.00000000	      0.00000000	      6.06801467	     -9.26314291	     -9.34260026	     31.15039250	     45.56918593	      0.00000000	      0.00000000
